# xmcd CD database file
#
# Track frame offsets:
#	150
#	43127
#	87658
#	143501
#	194717
#	244470
#	288656
#
# Disc length: 4033 seconds
#
# Revision: 0
# Processed by: cddbd v1.5.2PL0 Copyright (c) Steve Scherf et al.
# Submitted via: CDex 1.70beta2
#
DISCID=710fbf07
DTITLE=McCoy Tyner - Quartet
DYEAR=2007
DGENRE=Jazz
TTITLE0=Walk Spirit, Talk Spirit
TTITLE1=Mellow Minor
TTITLE2=Sama Layuca
TTITLE3=Passion Dance
TTITLE4=Search for Peace
TTITLE5=Blues on the Corner
TTITLE6=For All We Know
EXTD=YEAR: 2007
EXTT0=
EXTT1=
EXTT2=
EXTT3=
EXTT4=
EXTT5=
EXTT6=
PLAYORDER=
